<svg id="Layer_1" data-name="Layer 1" xmlns="http://www.w3.org/2000/svg" viewBox="0 0 1024 1024"><defs><style>.cls-1{fill:#036;}.cls-2{fill:#efce04;}</style></defs><rect class="cls-1" width="1024" height="1024"/><path class="cls-2" d="M848.72,691.35A1010.38,1010.38,0,0,1,839,820.8c-2.81,20.13-5.06,21.94-25.8,18.55C748.3,828.76,683.42,817.81,618.52,807c-46.1-7.66-92.18-15.42-138.32-22.84-19.14-3.08-22.06-6.61-19.21-26.55,3.1-21.71,6.6-43.38,9.34-65.14,2.77-22,4.82-23.82,26.07-18.55Q623.21,705.38,750,737c23.15,5.76,27.18,3.36,28.71-19.52,1.8-27.07,2.24-54.23,4.2-81.28,1.36-18.72-5.8-27.85-24.61-32.54-83.92-21-167.4-43.73-251.31-64.75-17.08-4.27-22.74-12.48-21.23-29.11,1.57-17.22,2.14-34.59,2-51.89-.1-14,5.27-19.16,19-15.82q113.49,27.54,227,54.92c5.95,1.44,12.36,6.4,17.7.53,6.33-7-.81-12.85-3.62-18.63-43.85-90.17-115.28-146.43-211.42-173.08-100.6-27.89-201.36-55.15-302.77-79.92C211,220.34,191.08,211.15,180,189.06c-2.19-4.37-7.21-9.41-3.34-14,3-3.57,8.75-.74,13.17.26,87.77,19.81,175.58,39.5,263.28,59.62,47.77,11,96.08,20.33,142.92,34.48C727,309,799.64,402.28,831.35,531.62,844.21,584.08,849.46,637.39,848.72,691.35Z"/><path class="cls-2" d="M269.57,748.42c23.88-19.33,43.33-36.14,55.83-59.68,25-47,23-96.73,15.43-146.9-6.51-42.93-20-84-36.89-123.89-3.29-7.76-6.19-15.68-10.31-26.19,32.12,7.68,61.67,14.66,91.17,21.85,9.85,2.41,9.33,10.59,8.94,18.13-2.45,47.77-3.78,95.63-7.91,143.26-4.84,55.67-12,111.15-18.52,166.66-2.35,19.91-6.05,22.33-25.95,19.11C318.82,757.13,296.34,753.05,269.57,748.42Z"/><path class="cls-2" d="M873.58,85A60.42,60.42,0,0,1,934,145.42V375a40,40,0,0,0,40,40h0a40,40,0,0,0,40-40V145.42A140.42,140.42,0,0,0,873.58,5H644a40,40,0,0,0-40,40h0a40,40,0,0,0,40,40Z"/><path class="cls-2" d="M934,868.58A60.42,60.42,0,0,1,873.58,929H644a40,40,0,0,0-40,40h0a40,40,0,0,0,40,40H873.58A140.42,140.42,0,0,0,1014,868.58V639a40,40,0,0,0-40-40h0a40,40,0,0,0-40,40Z"/><path class="cls-2" d="M90,145.42A60.42,60.42,0,0,1,150.42,85H380a40,40,0,0,0,40-40h0A40,40,0,0,0,380,5H150.42A140.42,140.42,0,0,0,10,145.42V375a40,40,0,0,0,40,40h0a40,40,0,0,0,40-40Z"/><path class="cls-2" d="M150.42,939A60.42,60.42,0,0,1,90,878.58V649a40,40,0,0,0-40-40h0a40,40,0,0,0-40,40V878.58A140.42,140.42,0,0,0,150.42,1019H380a40,40,0,0,0,40-40h0a40,40,0,0,0-40-40Z"/></svg>